<svg height="59" viewBox="0 0 224 59" width="224" xmlns="http://www.w3.org/2000/svg" xmlns:xlink="http://www.w3.org/1999/xlink">
  <linearGradient id="a">
    <stop offset="0" stop-color="#ed6f33"></stop>
    <stop offset="1" stop-color="#c92c3d"></stop>
  </linearGradient>

  <radialGradient id="b" cx="756.687397%" cy="760.452203%" gradientTransform="matrix(-.70660599 -.70647462 .70534426 -.70773838 7.549926 18.332319)" r="1041.48959%" xlink:href="#a"></radialGradient>
  <radialGradient id="c" cx="-226.007519%" cy="429.593027%" gradientTransform="matrix(-.70660599 -.70647462 .70534426 -.70773838 -6.887189 5.73957)" r="1041.48959%" xlink:href="#a"></radialGradient>
  <radialGradient id="d" cx="428.077227%" cy="-224.380876%" gradientTransform="matrix(-.70660599 -.70647462 .70534426 -.70773838 8.88829 -.807547)" r="1041.48959%" xlink:href="#a"></radialGradient>
  <radialGradient id="e" cx="-26.939849%" cy="574.793447%" gradientTransform="matrix(-.70646445 -.70647462 .70520297 -.70773838 -4.513158 9.625585)" r="1446.16274%" xlink:href="#a"></radialGradient>
  <radialGradient id="f" cx="-116.549892%" cy="539.123466%" gradientTransform="matrix(-.70646445 -.70647462 .70520297 -.70773838 -5.790775 8.383363)" r="1041.66612%" xlink:href="#a"></radialGradient>
  <radialGradient id="g" cx="537.516315%" cy="-114.96128%" gradientTransform="matrix(-.70646445 -.70647462 .70520297 -.70773838 9.983289 1.834226)" r="1041.66612%" xlink:href="#a"></radialGradient>
  <radialGradient id="h" cx="577.671915%" cy="-29.853886%" gradientTransform="matrix(-.70646445 -.70647462 .70520297 -.70773838 10.068236 3.571332)" r="1446.16274%" xlink:href="#a"></radialGradient>
  <radialGradient id="i" cx="370.231288%" cy="803.74097%" gradientTransform="matrix(-.7063229 -.70647462 .70506167 -.70773838 .650457 16.341357)" r="2065.99885%" xlink:href="#a"></radialGradient>
  <radialGradient id="j" cx="125.013092%" cy="726.798082%" gradientTransform="matrix(-.70639367 -.70647462 .70513232 -.70773838 -2.991739 13.295006)" r="1446.24781%" xlink:href="#a"></radialGradient>
  <radialGradient id="k" cx="-7.075315%" cy="648.598042%" gradientTransform="matrix(-.70646445 -.70647462 .70520297 -.70773838 -4.694764 11.026373)" r="1041.66612%" xlink:href="#a"></radialGradient>
  <radialGradient id="l" cx="647.009431%" cy="-5.486703%" gradientTransform="matrix(-.70646445 -.70647462 .70520297 -.70773838 11.079711 4.477207)" r="1041.66612%" xlink:href="#a"></radialGradient>
  <radialGradient id="m" cx="729.624856%" cy="122.13871%" gradientTransform="matrix(-.70639367 -.70647462 .70513232 -.70773838 11.588941 7.240412)" r="1446.24781%" xlink:href="#a"></radialGradient>
  <radialGradient id="n" cx="800.590181%" cy="373.421328%" gradientTransform="matrix(-.70653522 -.70647462 .70527362 -.70773838 11.028718 12.033002)" r="2065.82524%" xlink:href="#a"></radialGradient>
  <radialGradient id="o" cx="1100.06146%" cy="1111.46449%" gradientTransform="matrix(-.7060398 -.70647462 .70477908 -.70773838 10.934124 26.752474)" r="2893.17646%" xlink:href="#a"></radialGradient>
  <radialGradient id="p" cx="587.313886%" cy="1020.5254%" gradientTransform="matrix(-.70660599 -.70647462 .70534426 -.70773838 2.824818 21.577179)" r="2065.30458%" xlink:href="#a"></radialGradient>
  <radialGradient id="q" cx="277.038451%" cy="878.609211%" gradientTransform="matrix(-.70667677 -.70647462 .70541491 -.70773838 -1.469669 16.961577)" r="1445.90756%" xlink:href="#a"></radialGradient>
  <radialGradient id="r" cx="102.399668%" cy="758.184175%" gradientTransform="matrix(-.70646445 -.70647462 .70520297 -.70773838 -3.599288 13.671161)" r="1041.8427%" xlink:href="#a"></radialGradient>
  <radialGradient id="s" cx="756.595294%" cy="103.970251%" gradientTransform="matrix(-.70674754 -.70647462 .70548556 -.70773838 12.179759 7.120723)" r="1041.48959%" xlink:href="#a"></radialGradient>
  <radialGradient id="t" cx="881.687408%" cy="274.068568%" gradientTransform="matrix(-.70660599 -.70647462 .70534426 -.70773838 13.113837 10.909315)" r="1445.90756%" xlink:href="#a"></radialGradient>
  <radialGradient id="u" cx="1017.53824%" cy="590.546584%" gradientTransform="matrix(-.7063229 -.70647462 .70506167 -.70773838 13.198776 17.273711)" r="2065.99885%" xlink:href="#a"></radialGradient>
  <radialGradient id="v" cx="1017.38151%" cy="1025.01797%" gradientTransform="matrix(-.70653522 -.70647462 .70527362 -.70773838 10.132752 24.692191)" r="2065.82524%" xlink:href="#a"></radialGradient>
  <radialGradient id="w" cx="578.203363%" cy="881.592764%" gradientTransform="matrix(-.70653522 -.70647462 .70527362 -.70773838 3.649565 19.140087)" r="1446.24781%" xlink:href="#a"></radialGradient>
  <radialGradient id="x" cx="322.989218%" cy="756.411602%" gradientTransform="matrix(-.70653522 -.70647462 .70527362 -.70773838 .177178 15.199346)" r="1041.66612%" xlink:href="#a"></radialGradient>
  <radialGradient id="y" cx="758.500956%" cy="320.886178%" gradientTransform="matrix(-.70646445 -.70647462 .70520297 -.70773838 10.680607 10.838572)" r="1041.66612%" xlink:href="#a"></radialGradient>
  <radialGradient id="z" cx="879.295445%" cy="580.380857%" gradientTransform="matrix(-.70639367 -.70647462 .70513232 -.70773838 10.911873 16.123403)" r="1446.24781%" xlink:href="#a"></radialGradient>
  <radialGradient id="A" cx="879.08368%" cy="884.557819%" gradientTransform="matrix(-.70639367 -.70647462 .70513232 -.70773838 8.763247 21.316448)" r="1446.24781%" xlink:href="#a"></radialGradient>
  <radialGradient id="B" cx="539.890786%" cy="758.316972%" gradientTransform="matrix(-.70660599 -.70647462 .70534426 -.70773838 3.865028 16.764307)" r="1041.48959%" xlink:href="#a"></radialGradient>
  <radialGradient id="C" cx="756.728629%" cy="541.387638%" gradientTransform="matrix(-.70646445 -.70647462 .70520297 -.70773838 9.09543 14.59163)" r="1041.48959%" xlink:href="#a"></radialGradient>
  <radialGradient id="D" cx="798.437581%" cy="809.33433%" gradientTransform="matrix(-.70639367 -.70647462 .70513232 -.70773838 7.917682 19.462015)" r="2893.17646%" xlink:href="#a"></radialGradient>
  <g fill="none" fill-rule="evenodd">
    <path d="m2.4968213 0c-.61665034 0-1.23330068.23480551-1.70375179.70441654-.94090224.93922205-.94090224 2.463012 0 3.40223405.94090223.93922206 2.46660134.93922206 3.40750358 0 .94090224-.93922205.94090224-2.463012 0-3.40223405-.47045112-.46961103-1.08710145-.70441654-1.70375179-.70441654z" fill="url(#b)">
    </path>
    <path d="m48.1477316 16.6222736c-.9409022.9392221-.9409022 2.463012 0 3.4022341.9409022.939222 2.4666014.939222 3.4075036 0 .9409022-.9392221.9409022-2.463012 0-3.4022341-.4704511-.469611-1.0871015-.7044165-1.7037518-.7044165-.6166503 0-1.2333007.2348055-1.7037518.7044165" fill="url(#c)">
    </path>
    <path d="m16.6283235 48.0853971c-.9409023.9392221-.9409023 2.463012 0 3.4022341.9409022.939222 2.4666013.939222 3.4075035 0 .9409023-.9392221.9409023-2.463012 0-3.4022341-.4704511-.469611-1.0871014-.7044165-1.7037518-.7044165-.6166503 0-1.2333006.2348055-1.7037517.7044165" fill="url(#d)"></path><path d="m37.9946451 17.1774908c-.677907.6766965-.677907 1.7740861 0 2.4507826.677907.6758811 1.7772597.6758811 2.45435 0 .677907-.6766965.677907-1.7740861 0-2.4507826-.3389535-.3375329-.7824517-.5071146-1.2267666-.5071146-.444315 0-.8886299.1695817-1.2275834.5071146" fill="url(#e)"></path><path d="m42.8731251 11.3570861c-.9409022.9392221-.9409022 2.4621967 0 3.4014188.9409023.939222 2.4666014.939222 3.4075036 0 .9409023-.9392221.9409023-2.4621967 0-3.4014188-.4704511-.469611-1.0871014-.7044165-1.7037518-.7044165-.6166503 0-1.2333006.2348055-1.7037518.7044165" fill="url(#f)"></path><path d="m11.3529002 42.8202096c-.9400854.9392221-.9400854 2.4613814 0 3.4014188.941719.939222 2.4674181.939222 3.4083204 0 .9409022-.9400374.9409022-2.4621967 0-3.4014188-.4704511-.469611-1.0871015-.7044165-1.7037518-.7044165-.6166503 0-1.2333007.2348055-1.7045686.7044165" fill="url(#g)"></path><path d="m17.007298 38.1273605c-.677907.6766965-.677907 1.7740861 0 2.4507826.677907.6758811 1.7772597.6758811 2.45435 0 .677907-.6766965.677907-1.7740861 0-2.4507826-.3389535-.3375329-.7824517-.5071147-1.2267666-.5071147-.444315 0-.8886299.1695818-1.2275834.5071147" fill="url(#h)"></path><path d="m27.910166 17.4481694c-.4745349.4736875-.4745349 1.2416972 0 1.7145694.4745349.4736876 1.2439185.4736876 1.7176366 0 .4753517-.4728722.4753517-1.2408819 0-1.7145694-.2368591-.2372514-.5480429-.3554694-.8584099-.3554694-.3111838 0-.6223677.118218-.8592267.3554694" fill="url(#i)"></path><path d="m32.7200386 11.9123033c-.677907.6766965-.677907 1.7732708 0 2.4499673.677907.6766964 1.776443.6766964 2.45435 0 .677907-.6766965.677907-1.7732708 0-2.4499673-.3389535-.3383482-.7832684-.5071147-1.2275834-.5071147-.4434982 0-.8878131.1687665-1.2267666.5071147" fill="url(#j)"></path><path d="m37.5977019 6.0910833c-.9409022.93922205-.9409022 2.4621967 0 3.40141876.9409023.93922204 2.4666014.93922204 3.4075036 0 .9409023-.93922206.9409023-2.46219671 0-3.40141876-.4704511-.46961103-1.0871014-.70441654-1.7037518-.70441654-.6166503 0-1.2333006.23480551-1.7037518.70441654" fill="url(#k)"></path><path d="m6.07829378 37.5542068c-.94090223.9400373-.94090223 2.4621967 0 3.4014187.94090224.9392221 2.46660135.9392221 3.40750359 0 .94090223-.939222.94090223-2.4613814 0-3.4014187-.47045112-.4687957-1.08710146-.7044165-1.70375179-.7044165-.61665034 0-1.23330068.2356208-1.7037518.7044165" fill="url(#l)"></path><path d="m11.7326915 32.8613577c-.677907.6766965-.677907 1.7732708 0 2.4499673.677907.6766964 1.776443.6766964 2.45435 0 .677907-.6766965.677907-1.7732708 0-2.4499673-.3389535-.3383482-.7832684-.5071147-1.2275834-.5071147-.4434981 0-.8878131.1687665-1.2267666.5071147" fill="url(#m)"></path><path d="m17.4548799 27.88397c-.4737181.4736875-.4737181 1.2416972 0 1.7153847.4753517.4728722 1.2439185.4728722 1.7184534 0 .4745349-.4736875.4745349-1.2416972 0-1.7153847-.2376758-.2364361-.5480429-.3554694-.8592267-.3554694-.310367 0-.6215508.1190333-.8592267.3554694" fill="url(#n)"></path><path d="m17.7080741 17.5900311c-.3389535.3383482-.3389535.887043 0 1.224576.3389535.3383482.8886299.3383482 1.2275834 0 .3389535-.337533.3389535-.8862278 0-1.224576-.1690684-.1687665-.3912258-.2535574-.6142001-.2535574-.2221574 0-.4443149.0847909-.6133833.2535574" fill="url(#o)"></path><path d="m22.6355595 12.1821666c-.4753516.4736875-.4753516 1.2416972 0 1.7153847.4737182.4736875 1.2431018.4736875 1.7176367 0 .4745349-.4736875.4745349-1.2416972 0-1.7153847-.2376759-.2364361-.5480429-.3554695-.8592267-.3554695-.3111839 0-.6215509.1190334-.85841.3554695" fill="url(#p)"></path><path d="m27.4446154 6.6463005c-.677907.67669645-.677907 1.77327081 0 2.44996725.6770902.67669645 1.776443.67669645 2.45435 0 .6770902-.67669644.6770902-1.7732708 0-2.44996725-.3389535-.33834822-.7832684-.50792998-1.2275834-.50792998-.4443149 0-.8886299.16958176-1.2267666.50792998" fill="url(#q)"></path><path d="m32.3230955.82589578c-.9409023.93922205-.9409023 2.46138141 0 3.40060346.9409022.93922205 2.4657846.93922205 3.4066868 0 .9409022-.93922205.9409022-2.46138141 0-3.40060346-.4704511-.46961102-1.0871014-.70441654-1.702935-.70441654-.6166504 0-1.2333007.23480552-1.7037518.70441654" fill="url(#r)"></path><path d="m.80368733 32.2890193c-.94090224.939222-.94090224 2.4621967 0 3.4014187.94090223.9392221 2.46578459.9392221 3.40668683 0 .94090223-.939222.94090223-2.4621967 0-3.4014187-.47045112-.4696111-1.08710146-.7052319-1.7037518-.7052319-.61583358 0-1.23248392.2356208-1.70293503.7052319" fill="url(#s)"></path><path d="m6.4572683 27.5961702c-.67709024.6758811-.67709024 1.7732708 0 2.4499672.67790699.6766965 1.77644302.6766965 2.45516677 0 .67709024-.6766964.67709024-1.7740861 0-2.4499672-.33977025-.3383482-.7840852-.50793-1.22758339-.50793-.44431494 0-.88862989.1695818-1.22758338.50793" fill="url(#t)"></path><path d="m12.1802735 22.6187825c-.4745349.4728722-.4745349 1.2408819 0 1.7145694.4737181.4736875 1.2439185.4736875 1.7176366 0 .4753517-.4736875.4753517-1.2416972 0-1.7145694-.2368591-.2372514-.5480429-.3554695-.8584099-.3554695-.3111838 0-.6223677.1182181-.8592267.3554695" fill="url(#u)"></path><path d="m12.1876243 12.0794392c-.4737182.4736875-.4737182 1.2416972 0 1.7153847.4745349.4728722 1.2439185.4728722 1.7184534 0 .4745349-.4736875.4745349-1.2416972 0-1.7153847-.2368591-.2364361-.5480429-.3554695-.8592267-.3554695-.3111838 0-.6215509.1190334-.8592267.3554695" fill="url(#v)"></path><path d="m16.9917796 6.54928017c-.6770902.67669644-.6770902 1.7732708 0 2.44996725.677907.67669644 1.776443.67669644 2.45435 0 .677907-.67669645.677907-1.77327081 0-2.44996725-.3389535-.33834822-.7832684-.50711469-1.2267666-.50711469-.4443149 0-.8886299.16876647-1.2275834.50711469" fill="url(#w)"></path><path d="m21.6930238.90497958c-.9409023.93922206-.9409023 2.46219671 0 3.40141876.9409022.93922205 2.4657846.93922205 3.4066868 0 .941719-.93922205.941719-2.4621967 0-3.40141876-.4704511-.46961102-1.0862847-.70441654-1.702935-.70441654-.6166504 0-1.2333007.23480552-1.7037518.70441654" fill="url(#x)"></path><path d="m.70567668 21.8548493c-.94090224.939222-.94090224 2.4621967 0 3.4014187.94090223.9392221 2.46660134.9392221 3.40750358 0 .94090224-.939222.94090224-2.4621967 0-3.4014187-.47045112-.4696111-1.08710145-.7044166-1.70375179-.7044166-.61665034 0-1.23330068.2348055-1.70375179.7044166" fill="url(#y)"></path><path d="m6.53731033 16.9858961c-.677907.6758811-.677907 1.7724555 0 2.4491519.67709023.6766965 1.77644302.6766965 2.45435001 0 .677907-.6766964.677907-1.7732708 0-2.4491519-.33895349-.3383483-.78326844-.50793-1.22758338-.50793-.44431495 0-.88781314.1695817-1.22676663.50793" fill="url(#z)"></path><path d="m6.54466113 6.44655276c-.677907.67669644-.677907 1.7732708 0 2.44996725.67709023.67669644 1.77644302.67669644 2.45435001 0 .677907-.67669645.677907-1.77327081 0-2.44996725-.33895349-.33834822-.78326844-.50711469-1.22758338-.50711469-.44431495 0-.88781314.16876647-1.22676663.50711469" fill="url(#A)"></path><path d="m11.240188.80714395c-.9409022.93922206-.9409022 2.463012 0 3.40223406.9409022.93922205 2.4666013.93922205 3.4075036 0 .9409022-.93922206.9409022-2.463012 0-3.40223406-.4704511-.46961102-1.0871015-.70441654-1.7037518-.70441654-.6166503 0-1.2333007.23480552-1.7037518.70441654" fill="url(#B)">
    </path>
    <path d="m.78490195 11.2437598c-.94090223.9392221-.94090223 2.463012 0 3.4022341.94090224.939222 2.46741811.939222 3.40832034 0 .94090224-.9392221.94090224-2.463012 0-3.4022341-.47045112-.469611-1.08710145-.7044165-1.70456855-.7044165-.61665033 0-1.23330067.2348055-1.70375179.7044165" fill="url(#C)"></path><path d="m22.9508271 22.8226067c-.3389535.3383482-.3389535.8862278 0 1.224576.3389535.3383482.8878131.3383482 1.2267666 0 .3389535-.3383482.3389535-.8862278 0-1.224576-.1698851-.1687664-.3912258-.2535573-.6133833-.2535573-.2221574 0-.4443149.0847909-.6133833.2535573" fill="url(#D)">
    </path>
    <g fill="#020303" transform="translate(87.8132 .2845)"><path d="m9.89515518 23.4063593c5.04509822 0 9.08803752-3.0345351 9.08803752-8.7815631v-14.6247962h-5.1104387v14.2057336c0 2.776086-1.5518352 4.1645366-3.97759882 4.1645366-2.42658033 0-3.97841562-1.3884506-3.97841562-4.1645366v-14.2057336h-5.11043862v14.6247962c0 5.747028 4.04375605 8.7815631 9.08885424 8.7815631"></path><path d="m31.1447624 13.6565496v9.2332376h4.9160509v-10.0729935c0-3.51882149-1.8115635-6.39192784-5.8545028-6.39192784-1.6490292 0-3.6223103.7419202-4.4954218 2.26000307v-1.84012516h-4.7543333v16.04504343h4.9160509v-9.2014411c0-1.6142879 1.0356458-2.8078826 2.6520048-2.8078826 1.7788933 0 2.6201513 1.1935947 2.6201513 2.7760861"></path><path d="m39.9308454 5.217085c1.4407566 0 2.5940152-1.15038396 2.5940152-2.56084763 0-1.40883308-1.1532586-2.56003233-2.5940152-2.56003233-1.3835836 0-2.5360255 1.15119925-2.5360255 2.56003233 0 1.41046367 1.1524419 2.56084763 2.5360255 2.56084763"></path><path d="m37.5015698 22.8895426h4.9160509v-16.04504342h-4.9160509z"></path><path d="m54.4638646 22.8899502 6.1125975-16.04504337h-5.1741456l-3.4287392 9.97597317-3.7195041-9.97597317h-5.3366799l6.5977502 16.04504337z"></path><path d="m67.1751107 10.2343407c2.3285697 0 3.1698278 1.4846557 3.2343515 2.7116776h-6.4360327c.0971939-1.19441 1.132023-2.7116776 3.2016812-2.7116776m.2915817 13.1401405c4.0747928 0 6.6296037-2.3252268 7.4055214-5.1013128l-4.107463-1.1626134c-.4524825 1.2596337-1.4554582 2.0985742-3.2335347 2.0985742-1.9087574 0-3.5577866-1.2914303-3.6549805-3.0989436h11.1903659c.0326703-.0970203.0971939-.8397558.0971939-1.5172675 0-5.16572133-3.0726338-8.23286835-8.0532083-8.23286835-4.1728034 0-8.021355 3.29298427-8.021355 8.45870555 0 5.3915586 3.9457455 8.5557259 8.3774603 8.5557259"></path><path d="m84.672707 11.5253634c.4263463 0 .8829126.0366884 1.3598977.1304475 0 .0105989-.0016335.0211977-.0016335.0309813 0 2.2608184 1.3582643 4.1971485 4.7870035 4.939884l1.843417.419878c1.1965467.2576338 1.5845055.7427354 1.5845055 1.3232269 0 .7101236-.6142001 1.3884506-1.8760872 1.3884506-1.6816994 0-2.457617-1.0655931-2.5221407-2.1629827l-4.1719867.7427355c.1290474 1.7757167 1.7462231 5.0360891 6.7913213 5.0360891 4.3018508 0 6.4041792-2.679881 6.4041792-5.4241705 0-2.3562081-1.6171757-4.357762-4.9487211-5.036089l-2.1341819-.419878c-.7113939-.1288169-1.2618871-.5168982-1.2618871-1.1944099 0-.8397559.8085879-1.3884507 1.7462231-1.3884507 1.4881284 0 2.1676689.9041643 2.2967162 1.9697574l4.0756095-.7427355c-.1625343-1.87192177-1.77971-4.77845529-6.4368494-4.77845529-3.0236285 0-5.329329 1.69744819-5.9835501 3.98843249v-3.50333083c-.3226184-.09702033-.8085879-.16224408-1.2929239-.16224408-1.2937405 0-3.3315453.51689824-4.1728034 2.32522682v-2.16298274h-4.7543332v16.04504343h4.9160508v-7.0058465c0-3.1959639 1.7797101-4.3585773 3.7521744-4.3585773"></path><path d="m128.270213 6.84449918-3.557787 8.58752252-3.913075-8.58752252h-5.142292-.356106-2.781052v-4.68143492h-4.399045v2.0659624c0 1.48547099-.808587 2.61547252-2.490287 2.61547252h-.808588-.161717-4.9160511v16.04504342h4.9160511v-11.746798l.161717-.0040765h2.846393v6.8762142c0 3.1959639 2.037805 5.1657213 5.368533 5.1657213 1.552652 0 2.36124-.3554695 2.554811-.4516745v-4.0683316c-.290765.0644084-.775917.1614288-1.292924.1614288-1.067499 0-1.778893-.3554695-1.778893-1.6786964v-6.0046618h3.137158v-3.56284758l6.403362 13.15073938-3.65498 8.3298886h5.174962l9.896625-22.21194932z"></path><path d="m11.2230361 38.42527-3.07263383-.5813067c-1.5845055-.291061-2.26404601-1.0982049-2.26404601-2.1947793 0-1.2596337 1.2292169-2.4540437 3.13715754-2.4540437 2.7810522 0 3.6549805 1.8075132 3.8166981 2.8731063l4.5926156-1.2914303c-.4851527-2.679881-2.6520048-6.1016822-8.37664348-6.1016822-4.39904465 0-8.21492594 3.0345352-8.21492594 7.3605006 0 3.3908199 2.36042314 5.9728653 6.24164486 6.7156008l3.13715756.5813067c1.5199818.2902457 2.4584338 1.1291862 2.4584338 2.2926149 0 1.4202473-1.2292169 2.38882-3.23435146 2.38882-3.13715754 0-4.56076222-1.8409404-4.75433326-3.9386994l-4.68980958 1.1291862c.32343514 3.2285758 3.03996365 7.3295193 9.37961917 7.3295193 5.46572723 0 8.47383743-3.6484537 8.47383743-7.2324989 0-3.2603724-2.264046-6.0690703-6.6304205-6.8762143"></path><path d="m25.0010465 31.3225663h-4.3990446v2.0659624c0 1.485471-.8085879 2.6154725-2.4902873 2.6154725h-.8085878v4.2933536h2.8463926v6.8770295c0 3.195964 2.0378048 5.1657213 5.3685333 5.1657213 1.5526521 0 2.3612399-.3554694 2.554811-.4524898v-4.0675163c-.290765.0644085-.7759177.1614288-1.2929239.1614288-1.0674993 0-1.7788933-.3554695-1.7788933-1.6786964v-6.0054771h3.1371576v-4.2933536h-3.1371576z"></path><path d="m44.3739132 36.0039197h-4.9160508v9.1362173c0 1.6142879-1.0348291 2.7442894-2.6846751 2.7442894-1.746223 0-2.5874811-1.2270218-2.5874811-2.7769013v-9.1036054h-4.9160508v10.1374019c0 3.4226165 2.1995223 6.263111 6.1134142 6.263111 1.616359 0 3.459776-.5813067 4.301034-1.9697574 0 .4198779.0645237 1.3240422.1298641 1.6142879h4.7216631c-.0326702-.2576338-.1617176-1.4202472-.1617176-2.8731063z"></path><path d="m53.7538591 48.0137325c-1.9079407 0-3.6223103-1.3558388-3.6223103-4.0039232 0-2.6790656 1.7143696-3.970496 3.6223103-3.970496 1.9079406 0 3.6223102 1.2914304 3.6223102 3.970496 0 2.6480844-1.7143696 4.0039232-3.6223102 4.0039232zm8.408497-19.3388429h-4.8507104v8.5883377c-.3887756-.6139186-1.5853223-1.6468998-4.334521-1.6468998-4.5599455 0-7.7942969 3.58323-7.7942969 8.3616853 0 4.939884 3.4287392 8.4260936 7.9560145 8.4260936 1.9406108 0 3.5577865-.8071439 4.3018507-1.9045336 0 .6457152.0971939 1.3558388.1290474 1.5498795h4.7224798c-.0326702-.3554695-.1298641-1.4202472-.1298641-2.8731064z"></path><path d="m75.2622145 36.0039197-3.5577866 8.5875225-3.9130752-8.5875225h-5.4983974l6.7594678 13.8820607-3.6549805 8.3298886h5.1749623l9.8966253-22.2119493z"></path><path d="m78.7223171 48.1106713c-1.1303895 0-2.0361712.9286232-2.0361712 2.0569942 0 1.1291862.9057817 2.0325352 2.0361712 2.0325352s2.0606739-.903349 2.0606739-2.0325352c0-1.128371-.9302844-2.0569942-2.0606739-2.0569942"></path><path d="m88.0449267 49.7664578c-1.8344326 0-3.4181214-1.3794823-3.4181214-3.8384179 0-2.4589355 1.5836888-3.7886848 3.3674826-3.7886848 1.8605688 0 2.6895756 1.2050089 2.9664557 2.2828314l2.6136173-.9530821c-.5031214-1.9567126-2.3122346-4.0137067-5.6045757-4.0137067-3.5185823 0-6.2579799 2.7092317-6.2579799 6.4726422 0 3.7128622 2.7393976 6.4979165 6.3331214 6.4979165 3.2171996 0 5.0516323-2.0822683 5.6290783-3.9892478l-2.5629784-.9286232c-.2768801.9286232-1.1565257 2.2583724-3.0660999 2.2583724"></path><path d="m101.826041 46.981322c0 2.3839282-1.40727 3.1617215-3.0407806 3.1617215-1.1565256 0-1.7846106-.7533344-1.7846106-1.5808607 0-1.0036305.7285459-1.5050382 1.6335109-1.6558681l3.1918803-.4769487zm2.865178-2.9603431c0-2.4336613-1.432589-4.5656627-5.2027322-4.5656627-3.0162777 0-4.9258519 1.8817052-5.1520931 3.9892478l2.6642561.6016891c.1257804-1.2294677.9801065-2.2070087 2.5131564-2.2070087 1.6081918 0 2.3122348.8275263 2.3122348 1.8556157 0 .4272156-.200922.7777933-.904965.8780748l-3.1412415.4769487c-2.0859933.3008446-3.6950015 1.5050381-3.6950015 3.687588 0 1.9322537 1.5836888 3.6884033 4.147484 3.6884033 1.985532 0 3.19188-1.0036305 3.769326-1.9322537 0 .9791716.100461 1.4805792.125781 1.5555865h2.714078c-.024503-.1255557-.150283-.8528006-.150283-1.9567126z"></path><path d="m102.268804 5.217085c1.440756 0 2.594015-1.15038396 2.594015-2.56084763 0-1.40883308-1.153259-2.56003233-2.594015-2.56003233-1.383584 0-2.5360256 1.15119925-2.5360256 2.56003233 0 1.41046367 1.1524416 2.56084763 2.5360256 2.56084763"></path>
    </g>
  </g>
</svg>
