<svg viewBox="0 0 300 80" xmlns="http://www.w3.org/2000/svg">
  <!-- RBC Lions Symbol -->
  <g fill="#005DAA">
    <path d="M40,20 C45,20 48,25 48,30 C48,35 45,40 40,40 C35,40 32,35 32,30 C32,25 35,20 40,20 Z"/>
    <path d="M60,20 C65,20 68,25 68,30 C68,35 65,40 60,40 C55,40 52,35 52,30 C52,25 55,20 60,20 Z"/>
    <!-- Simplified lion shapes -->
    <path d="M35,25 C40,15 60,15 65,25 L50,35 Z"/>
  </g>
  
  <!-- Foundation Text -->
  <text x="100" y="35" font-family="Arial, sans-serif" font-size="24" fill="#005DAA">
    Foundation
  </text>
  <text x="100" y="60" font-family="Arial, sans-serif" font-size="24" fill="#005DAA">
    Fondation
  </text>
</svg>
